<?xml version="1.0" standalone="no"?><!DOCTYPE svg PUBLIC "-//W3C//DTD SVG 1.1//EN" "http://www.w3.org/Graphics/SVG/1.1/DTD/svg11.dtd"><svg t="1632904014103" class="icon" viewBox="0 0 1024 1024" version="1.1" xmlns="http://www.w3.org/2000/svg" p-id="3854" xmlns:xlink="http://www.w3.org/1999/xlink" width="128" height="128"><defs><style type="text/css"></style></defs><path d="M497.800533 540.458667l433.809067-210.722134v-47.982933L497.92 71.202133 65.348267 282.914133l-0.725334 47.1296 433.1776 210.414934zM0 369.800533L1.962667 242.688 497.800533 0l497.809067 241.681067v128.119466L497.800533 611.6096 0 369.800533z" p-id="3855"></path><path d="M99.797333 388.1728L1.962667 436.053333 0 563.182933l497.800533 241.800534 497.809067-241.800534V435.063467L890.436267 384l-71.611734 36.3776 112.785067 54.7584v47.982933L497.800533 733.832533 64.622933 523.4176l0.725334-47.1296L173.687467 423.253333z" p-id="3856"></path><path d="M99.797333 580.1728L1.962667 628.053333 0 755.182933l497.800533 241.800534 497.809067-241.800534V627.063467L890.436267 576l-71.611734 36.3776 112.785067 54.7584v47.982933l-433.809067 210.7136L64.622933 715.4176l0.725334-47.1296L173.687467 615.253333z" p-id="3857"></path></svg>